<svg width="45" height="45" viewBox="0 0 45 45" fill="none" xmlns="http://www.w3.org/2000/svg">
<path fill-rule="evenodd" clip-rule="evenodd" d="M22.5 0C16.389 0 15.624 0.0255 13.224 0.135C10.8285 0.2445 9.192 0.6255 7.761 1.182C6.261 1.746 4.9005 2.631 3.7755 3.777C2.63133 4.9007 1.74579 6.26024 1.1805 7.761C0.627 9.192 0.2445 10.83 0.135 13.2255C0.027 15.624 0 16.3875 0 22.5C0 28.6125 0.0255 29.376 0.135 31.776C0.2445 34.1715 0.6255 35.808 1.182 37.239C1.746 38.739 2.631 40.0995 3.777 41.2245C4.90073 42.3686 6.26026 43.2542 7.761 43.8195C9.192 44.3745 10.8285 44.7555 13.224 44.865C15.624 44.9745 16.389 45 22.5 45C28.611 45 29.376 44.9745 31.776 44.865C34.1715 44.7555 35.808 44.3745 37.239 43.818C38.739 43.254 40.0995 42.369 41.2245 41.223C42.3687 40.0993 43.2542 38.7398 43.8195 37.239C44.3745 35.808 44.7555 34.1715 44.865 31.776C44.9745 29.376 45 28.611 45 22.5C45 16.389 44.9745 15.624 44.865 13.224C44.7555 10.8285 44.3745 9.192 43.818 7.761C43.2531 6.2596 42.3675 4.89948 41.223 3.7755C40.0993 2.63133 38.7398 1.74579 37.239 1.1805C35.808 0.627 34.17 0.2445 31.7745 0.135C29.376 0.027 28.6125 0 22.5 0Z" fill="black"/>
<path fill-rule="evenodd" clip-rule="evenodd" d="M22.4986 30.0055C21.5127 30.0055 20.5364 29.8113 19.6256 29.434C18.7147 29.0568 17.8871 28.5038 17.19 27.8066C16.4929 27.1095 15.9399 26.2819 15.5626 25.371C15.1853 24.4602 14.9911 23.4839 14.9911 22.498C14.9911 21.5121 15.1853 20.5359 15.5626 19.625C15.9399 18.7142 16.4929 17.8865 17.19 17.1894C17.8871 16.4923 18.7147 15.9393 19.6256 15.562C20.5364 15.1847 21.5127 14.9905 22.4986 14.9905C24.4897 14.9905 26.3993 15.7815 27.8072 17.1894C29.2151 18.5973 30.0061 20.5069 30.0061 22.498C30.0061 24.4891 29.2151 26.3987 27.8072 27.8066C26.3993 29.2145 24.4897 30.0055 22.4986 30.0055ZM22.4986 10.933C19.4314 10.933 16.4898 12.1515 14.3209 14.3203C12.152 16.4892 10.9336 19.4308 10.9336 22.498C10.9336 25.5652 12.152 28.5068 14.3209 30.6757C16.4898 32.8446 19.4314 34.063 22.4986 34.063C25.5658 34.063 28.5074 32.8446 30.6763 30.6757C32.8451 28.5068 34.0636 25.5652 34.0636 22.498C34.0636 19.4308 32.8451 16.4892 30.6763 14.3203C28.5074 12.1515 25.5658 10.933 22.4986 10.933ZM37.4281 10.723C37.4281 11.448 37.1401 12.1434 36.6274 12.6561C36.1147 13.1687 35.4194 13.4568 34.6943 13.4568C33.9693 13.4568 33.274 13.1687 32.7613 12.6561C32.2486 12.1434 31.9606 11.448 31.9606 10.723C31.9606 9.99797 32.2486 9.30263 32.7613 8.78996C33.274 8.27728 33.9693 7.98926 34.6943 7.98926C35.4194 7.98926 36.1147 8.27728 36.6274 8.78996C37.1401 9.30263 37.4281 9.99797 37.4281 10.723Z" fill="white"/>
</svg>
