<svg width="51" height="39" viewBox="0 0 51 39" fill="none" xmlns="http://www.w3.org/2000/svg">
<path fill-rule="evenodd" clip-rule="evenodd" d="M44.5582 1.41838C46.7084 2.04476 48.4093 3.88913 48.987 6.22064C50.046 10.4661 50.0781 19.2703 50.0781 19.2703C50.0781 19.2703 50.0781 28.1092 49.0191 32.3199C48.4414 34.6514 46.7405 36.4958 44.5903 37.1222C40.7071 38.2705 25.0781 38.2705 25.0781 38.2705C25.0781 38.2705 9.44911 38.2705 5.56593 37.1222C3.41574 36.4958 1.71484 34.6514 1.13718 32.3199C0.078125 28.0744 0.078125 19.2703 0.078125 19.2703C0.078125 19.2703 0.078125 10.4661 1.10508 6.25545C1.68275 3.92392 3.38365 2.07957 5.53384 1.45319C9.41702 0.30481 25.046 0.27002 25.046 0.27002C25.046 0.27002 40.675 0.27002 44.5582 1.41838ZM33.037 19.2703L20.0717 27.4133V11.1273L33.037 19.2703Z" fill="black"/>
</svg>
