<svg width="51" height="51" viewBox="0 0 51 51" fill="none" xmlns="http://www.w3.org/2000/svg">
<path fill-rule="evenodd" clip-rule="evenodd" d="M50.9336 25.0166C50.9336 38.8237 39.7407 50.0166 25.9336 50.0166C12.1265 50.0166 0.933594 38.8237 0.933594 25.0166C0.933594 11.2095 12.1265 0.0166016 25.9336 0.0166016C39.7407 0.0166016 50.9336 11.2095 50.9336 25.0166ZM26.8294 18.4727C24.3978 19.4841 19.538 21.5775 12.25 24.7527C11.0665 25.2233 10.4466 25.6838 10.3901 26.1339C10.2948 26.8948 11.2475 27.1944 12.5449 27.6023C12.7214 27.6578 12.9043 27.7153 13.0918 27.7762C14.3682 28.1912 16.0853 28.6766 16.9779 28.6959C17.7876 28.7134 18.6913 28.3796 19.689 27.6944C26.4985 23.0979 30.0135 20.7746 30.2342 20.7245C30.3899 20.6891 30.6056 20.6447 30.7518 20.7746C30.898 20.9046 30.8836 21.1506 30.8681 21.2166C30.7737 21.619 27.0338 25.096 25.0984 26.8953C24.495 27.4563 24.067 27.8542 23.9795 27.9451C23.7836 28.1486 23.5838 28.3412 23.3918 28.5262C22.206 29.6694 21.3167 30.5267 23.4411 31.9266C24.4619 32.5994 25.2788 33.1557 26.0938 33.7107C26.9839 34.3168 27.8716 34.9214 29.0202 35.6743C29.3129 35.8661 29.5923 36.0654 29.8646 36.2594C30.9004 36.9978 31.8309 37.6613 32.9806 37.5555C33.6486 37.494 34.3387 36.8658 34.6891 34.9924C35.5173 30.5649 37.1453 20.9717 37.5215 17.0187C37.5545 16.6723 37.513 16.2291 37.4797 16.0345C37.4464 15.8399 37.3768 15.5627 37.1239 15.3575C36.8244 15.1144 36.3619 15.0632 36.1551 15.0668C35.2148 15.0834 33.7722 15.585 26.8294 18.4727Z" fill="black"/>
</svg>
