<svg width="50" height="50" viewBox="0 0 50 50" fill="none" xmlns="http://www.w3.org/2000/svg">
<g clip-path="url(#clip0_2846_3743)">
<path d="M0 24C0 12.6862 0 7.02944 3.51472 3.51472C7.02944 0 12.6862 0 24 0H26C37.3137 0 42.9705 0 46.4853 3.51472C50 7.02944 50 12.6862 50 24V26C50 37.3137 50 42.9705 46.4853 46.4853C42.9705 50 37.3137 50 26 50H24C12.6862 50 7.02944 50 3.51472 46.4853C0 42.9705 0 37.3137 0 26V24Z" fill="black"/>
<path d="M26.6041 36.021C15.2082 36.021 8.70833 28.2085 8.4375 15.2085H14.1458C14.3333 24.7502 18.5416 28.7918 21.8749 29.6252V15.2085H27.2501V23.4377C30.5418 23.0835 33.9997 19.3335 35.1664 15.2085H40.5415C39.6456 20.2918 35.8956 24.0418 33.229 25.5835C35.8956 26.8335 40.1667 30.1043 41.7917 36.021H35.8748C34.604 32.0627 31.4376 29.0002 27.2501 28.5835V36.021H26.6041Z" fill="white"/>
</g>
<defs>
<clipPath id="clip0_2846_3743">
<rect width="50" height="50" fill="white"/>
</clipPath>
</defs>
</svg>
